<svg fill="none" height="32" viewBox="0 0 32 32" width="32" xmlns="http://www.w3.org/2000/svg" xmlns:xlink="http://www.w3.org/1999/xlink"><clipPath id="a"><path d="m0 0h32v32h-32z"/></clipPath><g clip-path="url(#a)" fill="#fff"><path d="m31.9686 9.40809c-.0749-1.70029-.3499-2.86922-.7438-3.88211-.4063-1.07516-1.0314-2.03775-1.8504-2.83795-.8002-.81266-1.7692-1.44413-2.8319-1.844115-1.0187-.393876-2.1815-.668832-3.8818-.743798-1.713-.0813145-2.2568-.100117-6.6014-.100117s-4.8884.0188025-6.59506.0937683c-1.70028.0749657-2.86921.3501657-3.88186.7437977-1.07541.406334-2.038 1.031454-2.8382 1.850464-.81266.8002-1.44389 1.76914-1.844113 2.83185-.393875 1.01899-.668832 2.18158-.743797 3.88186-.0813152 1.71296-.1001177 2.25676-.1001177 6.60136s.0188025 4.8884.0937687 6.5951c.074966 1.7002.350166 2.8692.744042 3.8821.406327 1.0751 1.037557 2.0377 1.850217 2.8379.8002.8127 1.76914 1.4442 2.83185 1.8441 1.019.3939 2.18158.6689 3.88211.7438 1.70636.0752 2.25046.0938 6.59506.0938s4.8884-.0186 6.595-.0938c1.7003-.0749 2.8692-.3499 3.8819-.7438 2.1505-.8314 3.8508-2.5317 4.6823-4.682.3936-1.019.6688-2.1819.7438-3.8821.075-1.7067.0938-2.2505.0938-6.5951s-.0064-4.8884-.0814-6.59501zm-2.8816 13.06501c-.0689 1.5628-.3314 2.4068-.5502 2.9694-.5377 1.394-1.6441 2.5005-3.0382 3.0382-.5626.2188-1.4126.4813-2.9693.5499-1.6878.0752-2.194.0937-6.4637.0937-4.2696 0-4.7822-.0185-6.46388-.0937-1.56281-.0686-2.40672-.3311-2.96933-.5499-.69374-.2564-1.32521-.6628-1.83776-1.1941-.53136-.5189-.93769-1.144-1.19408-1.8378-.2188-.5626-.4813-1.4129-.54992-2.9693-.07521-1.6878-.09376-2.1943-.09376-6.4639 0-4.2697.01855-4.7822.09376-6.46369.06862-1.5628.33112-2.40672.54992-2.96933.25639-.69398.66272-1.32521 1.20043-1.838.51865-.53135 1.14377-.93768 1.83776-1.19384.56261-.21879 1.41287-.48129 2.96933-.55015 1.68783-.07497 2.19423-.09377 6.46363-.09377 4.276 0 4.7822.0188 6.4639.09377 1.5628.06886 2.4068.33136 2.9694.55015.6937.25616 1.3252.66249 1.8377 1.19384.5314.5189.9377 1.14402 1.1941 1.838.2188.56261.4813 1.41263.5502 2.96933.0749 1.68779.0937 2.19399.0937 6.46369 0 4.2696-.0188 4.7697-.0937 6.4575z"/><path d="m16.0592 7.78278c-4.5382 0-8.22033 3.68182-8.22033 8.22032s3.68213 8.2204 8.22033 8.2204c4.5385 0 8.2204-3.6819 8.2204-8.2204s-3.6819-8.22032-8.2204-8.22032zm0 13.55272c-2.9442 0-5.3323-2.3879-5.3323-5.3324 0-2.9444 2.3881-5.3323 5.3323-5.3323 2.9444 0 5.3324 2.3879 5.3324 5.3323 0 2.9445-2.388 5.3324-5.3324 5.3324z"/><path d="m26.5239 7.45774c0 1.05978-.8593 1.91908-1.9193 1.91908-1.0598 0-1.9191-.8593-1.9191-1.91908 0-1.06002.8593-1.91907 1.9191-1.91907 1.06 0 1.9193.85905 1.9193 1.91907z"/></g></svg>